<svg xmlns="http://www.w3.org/2000/svg" width="82.7" height="72" viewBox="0 0 82.7 72"><path d="M79.2,71.6H52.8a7,7,0,0,0-7,7V86a7,7,0,0,0,7,7H79.2a7,7,0,0,0,7-7V78.6A7,7,0,0,0,79.2,71.6ZM83.6,86a4.33,4.33,0,0,1-4.3,4.3H52.8A4.33,4.33,0,0,1,48.5,86V78.6a4.33,4.33,0,0,1,4.3-4.3H79.2a4.33,4.33,0,0,1,4.3,4.3V86Z" transform="translate(-25.3 -27.6)"/><path d="M107.9,55.6a14,14,0,0,0-1-3.5,17.43,17.43,0,0,0-4.7-6.2,4.62,4.62,0,0,1-.7-.7c-2.3-2.3-3.4-6-3.3-11.2a3.57,3.57,0,0,0,1.2-2.7,3.76,3.76,0,0,0-3.7-3.7L84,27.7a3.83,3.83,0,0,0-3.7,3.7A3.63,3.63,0,0,0,81.4,34a.35.35,0,0,0,.2.1c0,5.1-1.1,8.9-3.3,11.1l-.3.3c-.1.1-.3.2-.4.4a17.67,17.67,0,0,0-4.7,6.2,18.93,18.93,0,0,0-1,3.6l.1,9.4H66.4v-23h0V42h0a1.42,1.42,0,0,0-.2-.6l-2.9-4.8a1.52,1.52,0,0,0-1.2-.7H29.5a1.39,1.39,0,0,0-1.2.7l-2.8,4.8h0l-.1.1h0a.6.6,0,0,0-.1.4h0V93.1a1.54,1.54,0,0,0,1.5,1.5H39v.8a4.23,4.23,0,0,0,4.2,4.2H89a4.23,4.23,0,0,0,4.2-4.2V93.6l9.3.1a5.3,5.3,0,0,0,3.7-1.5,5.08,5.08,0,0,0,1.5-3.6l.3-32.9ZM84,30.5l11.8-.1a.9.9,0,1,1,0,1.8L84,32.3a1,1,0,0,1-1-1A1,1,0,0,1,84,30.5ZM30.3,38.8H61.1l1.1,1.9h-33Zm8.6,52.9H28.1V43.5H63.4V65.1H59.9V54.9a7.7,7.7,0,0,0-7.7-7.7h-13a7.7,7.7,0,0,0-7.7,7.7V80.1a7.34,7.34,0,0,0,7.3,7v4.6Zm0-22.4V83.8c-3.4,0-4.4-2.3-4.4-3.7V54.9a4.8,4.8,0,0,1,4.8-4.8h13a4.8,4.8,0,0,1,4.8,4.8V65.1H43A4.14,4.14,0,0,0,38.9,69.3ZM90.3,95.4a1.37,1.37,0,0,1-1.4,1.4H43a1.37,1.37,0,0,1-1.4-1.4V69.3A1.37,1.37,0,0,1,43,67.9H89a1.37,1.37,0,0,1,1.4,1.4V95.4ZM89,65.1H80.8V60.8a2.11,2.11,0,0,1,2.1-2.1H97a2.11,2.11,0,0,1,2.1,2.1V82.3A2.11,2.11,0,0,1,97,84.4H93.2V69.3A4.29,4.29,0,0,0,89,65.1Zm15.9,23.5h0a2.61,2.61,0,0,1-.7,1.7,2.13,2.13,0,0,1-1.5.7l-9.5-.1v-4H97a4.59,4.59,0,0,0,4.6-4.6V60.8A4.65,4.65,0,0,0,97,56.2H82.8a4.65,4.65,0,0,0-4.6,4.6v4.3H74.7l-.1-9.2a12.66,12.66,0,0,1,4.8-8l.4-.4c.1-.1.3-.2.4-.3,2.6-2.6,3.9-6.6,4-12h.7l4.9.2,5.6-.1c0,5.4,1.4,9.4,4,12.1l.8.8a14.39,14.39,0,0,1,4,5.2,11.43,11.43,0,0,1,.8,2.7Z" transform="translate(-25.3 -27.6)"/></svg>