<svg xmlns="http://www.w3.org/2000/svg" width="63.8" height="77.6" viewBox="0 0 63.8 77.6"><path d="M94,24.8H48.4A4.44,4.44,0,0,0,44,29.2v5.1H39a4.44,4.44,0,0,0-4.4,4.4V98a4.44,4.44,0,0,0,4.4,4.4H84.5A4.44,4.44,0,0,0,88.9,98V93H94a4.44,4.44,0,0,0,4.4-4.4V29.1A4.42,4.42,0,0,0,94,24.8ZM47.5,88.6V29.1a.9.9,0,0,1,.9-.9H94a.9.9,0,0,1,.9.9V88.6a.9.9,0,0,1-.9.9H48.4A.9.9,0,0,1,47.5,88.6Zm.9,4.5H85.5v5.3a.89.89,0,0,1-.8.5H39.1a.9.9,0,0,1-.9-.9V38.5a.9.9,0,0,1,.9-.9h5V88.7A4.35,4.35,0,0,0,48.4,93.1Z" transform="translate(-34.6 -24.8)"/><path d="M63.3,54.8a1.85,1.85,0,0,0,1.2-.5l5.9-5.9,2.9,2.9a1.63,1.63,0,0,0,2.4,0L82,45l.9.9a1.06,1.06,0,0,0,1.2.2.94.94,0,0,0,.6-.8l.6-4.6a1,1,0,0,0-.3-1,.86.86,0,0,0-.9-.3l-4.7.6a1.27,1.27,0,0,0-.9.7,1.13,1.13,0,0,0,.3,1.1l.9.9-5.1,5.1-2.9-2.9a1.63,1.63,0,0,0-2.4,0L62,52a1.69,1.69,0,0,0,0,2.4A3.26,3.26,0,0,0,63.3,54.8Z" transform="translate(-34.6 -24.8)"/><path d="M57.7,71.1H84.9a1.75,1.75,0,0,0-.1-3.5H57.7A1.75,1.75,0,0,0,56,69.3,1.77,1.77,0,0,0,57.7,71.1Z" transform="translate(-34.6 -24.8)"/><path d="M57.7,82H84.9a1.75,1.75,0,0,0-.1-3.5H57.7A1.75,1.75,0,0,0,56,80.2,1.84,1.84,0,0,0,57.7,82Z" transform="translate(-34.6 -24.8)"/><path d="M57.7,60.1H84.9a1.75,1.75,0,0,0-.1-3.5H59.4V38.2a1.7,1.7,0,1,0-3.4,0V58.3A1.77,1.77,0,0,0,57.7,60.1Z" transform="translate(-34.6 -24.8)"/></svg>