<svg xmlns="http://www.w3.org/2000/svg" width="76" height="76.3" viewBox="0 0 76 76.3">
  <g>
    <path className="circleDraw" d="M96.9,73.8a8.68,8.68,0,0,0-3.9,1l-6.9-6.9A25.78,25.78,0,1,0,40.7,51.2a25.3,25.3,0,0,0,6.2,16.7l-6.8,6.9a8.05,8.05,0,0,0-3.9-1,7.7,7.7,0,1,0,7.7,7.7,8.68,8.68,0,0,0-1-3.9l6.9-6.9a25.22,25.22,0,0,0,14.8,6.1v9.7A7.83,7.83,0,0,0,58.8,94a7.7,7.7,0,0,0,15.4,0,7.8,7.8,0,0,0-5.8-7.5V76.8a25.87,25.87,0,0,0,14.8-6.1l6.9,6.9a8.05,8.05,0,0,0-1,3.9,7.7,7.7,0,0,0,15.4,0A7.62,7.62,0,0,0,96.9,73.8ZM36.2,85.3A3.8,3.8,0,1,1,40,81.5,3.8,3.8,0,0,1,36.2,85.3Zm34.1,8.8a3.8,3.8,0,1,1-3.8-3.8A3.8,3.8,0,0,1,70.3,94.1ZM66.6,73A21.85,21.85,0,1,1,88.5,51.1,21.81,21.81,0,0,1,66.6,73ZM96.9,85.3a3.8,3.8,0,1,1,3.8-3.8A3.8,3.8,0,0,1,96.9,85.3Z" transform="translate(-28.5 -25.4)"/>
    <path d="M77.4,54.8a8.55,8.55,0,0,0-4.7-6.6,8.27,8.27,0,1,0-14.6-5.3,7.76,7.76,0,0,0,2,5.3,8.79,8.79,0,0,0-4.7,6.6l-.8,6.7a2.25,2.25,0,0,0,1.6,2.2,43.95,43.95,0,0,0,20.4,0A1.79,1.79,0,0,0,78,61.5ZM66.6,38.6a4.3,4.3,0,1,1-4.3,4.3A4.15,4.15,0,0,1,66.6,38.6ZM58.9,60.2l.6-4.9a4.75,4.75,0,0,1,4.7-4.1h4.7a4.83,4.83,0,0,1,4.7,4.1l.6,4.9A39.39,39.39,0,0,1,58.9,60.2Z" transform="translate(-28.5 -25.4)"/>
  </g>
</svg>
