<svg xmlns="http://www.w3.org/2000/svg" xmlns:xlink="http://www.w3.org/1999/xlink" width="667.87" height="216.16" viewBox="0 0 667.87 216.16">
    <defs><clipPath id="a" transform="translate(-20.34 0.02)" /></defs>
    <path
        d="M218.54,130.84c.1-.5.25-1,.38-1.51l.21-.8A98.44,98.44,0,0,0,95.07,9.3L94,7.05,95.07,9.3A98.78,98.78,0,0,0,46.9,42.22,11,11,0,0,1,46,43.35c-.26.26-9.72,5.48-9.57,5.25.4-.6,1.73-2.85,2.18-3.51l.86-1.22A103.7,103.7,0,0,1,92.83,4.8h0a103.41,103.41,0,0,1,134.52,98.6,101.51,101.51,0,0,1-3.75,28c-.17.61-.38,1.47-.57,2.09l-1.23,4.22-5.28,0S218.26,132.21,218.54,130.84Z"
        transform="translate(-20.34 0.02)"
        fill="#fff"
    />
    <g clip-path="url(#a)">
        <circle cx="103.84" cy="103.46" r="88.4" fill="#ff8300" />
        <path d="M67.92,43.77c41.25,3.2,69.89,36,67.92,67.92-1.84,29.89-30.54,60-58.74,56.13-27.08-3.7-41-36.95-43.29-59.15C30.17,73.1,54.6,48.14,58.35,44.44" transform="translate(-20.34 0.02)" fill="#ffcd00" />
        <path d="M58.35,44.44a68.66,68.66,0,0,1,9.57-.67" transform="translate(-20.34 0.02)" fill="#ffcd00" />
        <path d="M213.07,119.15c-14.38,54.76-65.73,86.11-114.7,70C69.1,179.57,46,154.44,36.52,122,34.18,114.12,214.28,114.3,213.07,119.15Z" transform="translate(-20.34 0.02)" fill="#238dc1" />
        <path
            d="M106.76,191.87c14.95,6.06,29-.39,29-.39s23.26-22.21,25.36-33c1.86-9.45-24-16.48-31-23.05l-28.61-2c6.76,5.35,24.72,13.08,23.72,18.16-1.13,5.75-33.8,22.52-54.28,22.75,0,0,15.27,13.42,35.83,17.52"
            transform="translate(-20.34 0.02)"
            fill="#ff8300"
        />
        <path
            d="M211.45,127.7c-17.54-14.4-47.8-39.5-49.37-42.38-2.21-4.07-29.28-44.37-41.26-43.7s-20.57,28.55-20.57,28.55a21,21,0,0,0-7.11,2.52C90.8,74,88,79,85.35,83.9c-2,3.61-3.87,7.1-5.44,8.85L36.05,121.29l7.45,18.06C90.64,139,172,138.25,207,137.92A49.89,49.89,0,0,0,211.45,127.7Z"
            transform="translate(-20.34 0.02)"
            fill="#003b71"
        />
        <path
            d="M160.35,80.1C158.12,76,131,35.73,119,36.4S98.45,64.94,98.45,64.94a21.18,21.18,0,0,0-7.1,2.53c-2.3,1.27-5.1,6.34-7.75,11.21-2,3.6-3.87,7.1-5.44,8.85l-42.53,33.2A57.14,57.14,0,0,1,38,126.51c13.36-1.78,15.17-10.14,22-10.14,8.62,0,32.25-1.31,33-4.37.52-2.14-11.87-5.09-14.4-9.83-.43-.82,27,8.51,27.8,3.88.15-.89-12.43-6.4-13.66-7.13-1.51-.9-7.33-3.38-7.83-8.51-.09-1,20.73,8.57,23.55,3.17.38-.74-11.66-5.72-14.27-8.65-2.19-2.44-4.24-6.18-1.24-7.07,5.38-1.6,30.1,4.49,30.74,1.87.22-.69-8.24-3.09-12-5.59-3-2.06-6.47-6.85-3.47-6,1.35.35,12.42,3.26,12.92,1.35.13-.51-14.4-6-14.07-6.92,2.93-8.42,9.77-19.54,11.18-19.79,8.67-1.54,29,31.94,40.49,43.58,4.18,4.27-45.48,12.18-42.62,15,5.32,5.23,62.27,4.31,68.85,10.31,8.29,7.52,13.11,8.87,13.11,8.87L212,128.18S162.58,84.2,160.35,80.1Z"
            transform="translate(-20.34 0.02)"
            fill="#aac6c9"
        />
    </g>
    <path d="M216.54,137.76a98.37,98.37,0,0,1-184,1.76c-1-2.44-6.41-3.08-5.76-1.25l.45,1.25a103.34,103.34,0,0,0,194.58-1.83Z" transform="translate(-20.34 0.02)" fill="#fff" />
    <path
        d="M25.35,103.9A97.48,97.48,0,0,1,46,43.57c.37-.47-7.77,2.23-8.13,2.78C26.83,62.81,20,82.62,20.35,103.9c.25,14.58,3.46,26,6.74,35.67a38.86,38.86,0,0,0,5.5-.12A91,91,0,0,1,25.35,103.9Z"
        transform="translate(-20.34 0.02)"
        fill="#fff"
    />
    <path d="M286.64,41h18l33,90.07H319.49l-6.22-18H277.5l-6.22,18H253.66Zm-4.1,57.36H308.1L297.64,67.89A83.28,83.28,0,0,1,295.25,59c-.13.66-1.45,6.22-2.25,8.87Z" transform="translate(-20.34 0.02)" fill="#fff" />
    <path d="M339.23,32.33h16.69v98.74H339.23Z" transform="translate(-20.34 0.02)" fill="#fff" />
    <path d="M364.92,32.33h16.69v98.74H364.92Z" transform="translate(-20.34 0.02)" fill="#fff" />
    <path d="M390.22,36.5h17.49V53.06H390.22Zm.4,26.36h16.73v68.21H390.62Z" transform="translate(-20.34 0.02)" fill="#fff" />
    <path
        d="M412.89,112.13c0-15.23,13.64-18.67,26.49-20.53,14.17-2,20.53-3.84,20.53-9.54,0-4.9-4.37-7.15-12.19-7.15-7.55,0-12.71,2.65-14.3,8.35H416.06c2-12.59,12.85-22.12,31.53-22.12,22.12,0,29,10.46,29,23.84v31.66A43.46,43.46,0,0,0,479,131.07H462.56c-.8-1.72-1.73-4.76-2.12-10.06-4,6.89-11.39,11.52-22.92,11.52C425.07,132.53,412.89,126.7,412.89,112.13Zm47-7.28V97.43c-4.64,3-10.73,4.24-18,5.56S430,106,430,111.47c0,4.64,3.45,7.29,11.53,7.29,10.85,0,18.41-5.44,18.41-13.91Z"
        transform="translate(-20.34 0.02)"
        fill="#fff"
    />
    <path d="M484.57,62.86h16.16V73.59c3.18-8.08,11.26-12.45,19.61-12.45,15.1,0,24.37,11.12,24.37,29.8v40.13H528V90.94c0-8.35-3.58-14.44-13-14.44-9,0-13.78,6.09-13.78,14.44v40.13H484.57Z" transform="translate(-20.34 0.02)" fill="#fff" />
    <path
        d="M549.29,97c0-20.66,15.9-35.89,34.71-35.89,16,0,28.34,9.8,31.79,24.63H598.43c-2-6.22-7.41-9.8-14.43-9.8-9.54,0-17.36,8-17.36,21.2,0,13,7.82,20.66,17.36,20.66,7.81,0,12.71-4,14.57-9.8h17.48c-3.44,14.83-15.5,24.63-32,24.63C565.19,132.66,549.29,117.7,549.29,97Z"
        transform="translate(-20.34 0.02)"
        fill="#fff"
    />
    <path
        d="M636.56,102.33c1.59,10.33,8.48,15.5,18.55,15.5,6.22,0,11-2.25,13.51-6.36H686.5c-4,13.64-15.76,21.19-31.39,21.19-20,0-35.9-15-35.9-35.63s15.37-35.89,34.57-35.89c21.57,0,36.57,17.86,34.18,41.19Zm.4-11.92h33.51c-1.72-9.4-8-14.7-16.69-14.7-7.95,0-14.7,5.43-16.82,14.7Z"
        transform="translate(-20.34 0.02)"
        fill="#fff"
    />
    <path d="M218.78,144.87a.18.18,0,0,1,.07-.17h0C218.83,144.76,218.8,144.81,218.78,144.87Z" transform="translate(-20.34 0.02)" fill="#0e406a" />
    <polygon points="89.17 98.48 89.19 98.48 89.17 98.48 89.17 98.48" fill="#fff" />
    <path d="M218.89,144.88l.08-.16h0C218.94,144.77,218.92,144.83,218.89,144.88Z" transform="translate(-20.34 0.02)" fill="#0e406a" />
    <path
        d="M315.22,150.83a2.66,2.66,0,0,0-1.54,1.73,14.72,14.72,0,0,0-.41,4.13V194a14.79,14.79,0,0,0,.41,4.14,2.6,2.6,0,0,0,1.58,1.73,13.21,13.21,0,0,0,3.64.6V202q-4.12-.22-11.79-.23c-5.37,0-9.32.08-11.88.23v-1.5a14.65,14.65,0,0,0,3.95-.6,2.72,2.72,0,0,0,1.69-1.73,13.77,13.77,0,0,0,.48-4.14V154.7L283.21,202H282l-20.3-48.4v36a32.92,32.92,0,0,0,.46,6.5,4.43,4.43,0,0,0,2,3,12.08,12.08,0,0,0,4.88,1.32v1.5c-2-.15-4.66-.23-8.11-.23q-4.14,0-6.54.23v-1.5a7.93,7.93,0,0,0,3.64-1.28,4.62,4.62,0,0,0,1.58-2.86,29.44,29.44,0,0,0,.42-5.78V156.69a14.37,14.37,0,0,0-.42-4.13,2.58,2.58,0,0,0-1.58-1.73,13.21,13.21,0,0,0-3.64-.6v-1.51c1.6.15,3.78.22,6.54.23q6.92,0,11.87-.23L288,185.32,301.77,149h5.34q7.67,0,11.79-.23v1.51A12.72,12.72,0,0,0,315.22,150.83Z"
        transform="translate(-20.34 0.02)"
        fill="#fff"
    />
    <path
        d="M325.48,200a9.06,9.06,0,0,1-2.37-6.54,8.67,8.67,0,0,1,1.77-5.6,11.87,11.87,0,0,1,4.28-3.42,62.28,62.28,0,0,1,6.43-2.55,34.05,34.05,0,0,0,6.05-2.6,3.57,3.57,0,0,0,1.91-3.19v-5.86a7.52,7.52,0,0,0-1.46-4.93,5.6,5.6,0,0,0-4.55-1.76,7.67,7.67,0,0,0-5.49,1.8,6.93,6.93,0,0,1,3.27,2.26,5.56,5.56,0,0,1,1.17,3.53,5.1,5.1,0,0,1-1.73,4.06,6.19,6.19,0,0,1-4.21,1.5,5.07,5.07,0,0,1-4.06-1.65,6.78,6.78,0,0,1-.41-7.71,10.12,10.12,0,0,1,3.12-2.74,17.28,17.28,0,0,1,5-1.88,29,29,0,0,1,6.5-.67,24.18,24.18,0,0,1,6.39.75,10,10,0,0,1,4.5,2.55,8.18,8.18,0,0,1,2.22,4.06,29.3,29.3,0,0,1,.56,6.54v20.44a6.9,6.9,0,0,0,.34,2.55,1.31,1.31,0,0,0,1.32.76,4.68,4.68,0,0,0,2.7-1.28l.76,1.28a12.66,12.66,0,0,1-8.27,2.78q-4.14,0-5.79-1.66a6.23,6.23,0,0,1-1.73-4.43,12.17,12.17,0,0,1-11,6.09Q327.86,202.47,325.48,200Zm18.07-5.41V179.16a11.72,11.72,0,0,1-3.83,3.31,18.31,18.31,0,0,0-4.43,3.75,8.43,8.43,0,0,0-1.51,5.42,6.81,6.81,0,0,0,1.28,4.54,4.25,4.25,0,0,0,3.38,1.47q2.91,0,5.11-3.08Z"
        transform="translate(-20.34 0.02)"
        fill="#fff"
    />
    <path
        d="M392.63,164.05a7.33,7.33,0,0,1,1.72,4.89,6.48,6.48,0,0,1-1.61,4.55,5.5,5.5,0,0,1-4.25,1.76,6,6,0,0,1-4.06-1.31,4.45,4.45,0,0,1-1.5-3.5,6.83,6.83,0,0,1,3.31-5.86,3.91,3.91,0,0,0-.9-.07,4.1,4.1,0,0,0-1.21.15,7.14,7.14,0,0,0-4.84,3.45,11,11,0,0,0-2,6.17v19.91c0,2.3.57,3.91,1.7,4.81s2.91,1.35,5.37,1.35v1.58a16.68,16.68,0,0,1-1.73-.07c-5.11-.16-8.52-.23-10.22-.23-1.35,0-4.43.07-9.24.23a12.72,12.72,0,0,1-1.51.07v-1.58c1.81,0,3.06-.38,3.76-1.16s1.05-2.19,1.05-4.25V171.27a9.34,9.34,0,0,0-1.05-5,4.3,4.3,0,0,0-3.76-1.57v-1.58c1.61.15,3.16.22,4.66.22a47.23,47.23,0,0,0,11-1.05v7a12.82,12.82,0,0,1,4.14-5.22,10,10,0,0,1,6.09-2A6.35,6.35,0,0,1,392.63,164.05Z"
        transform="translate(-20.34 0.02)"
        fill="#fff"
    />
    <path
        d="M434.94,199.11a4.12,4.12,0,0,0,2,1.24v1.58q-6-.3-7.89-.3c-1.65,0-4.89.1-9.7.3v-1.58A3.19,3.19,0,0,0,421,200a1.18,1.18,0,0,0,.6-1.06,2.92,2.92,0,0,0-.38-1.12l-7.44-13.45a4.43,4.43,0,0,0-1.57-1.73,6,6,0,0,0-2.11-.6v12.92c0,2.06.33,3.47,1,4.25s1.83,1.16,3.53,1.16v1.58q-7.51-.3-9.77-.3-2.55,0-10.37.3v-1.58a4.94,4.94,0,0,0,3.72-1.16c.73-.78,1.09-2.19,1.09-4.25V152.11a9,9,0,0,0-1.09-5,4.2,4.2,0,0,0-3.72-1.58V144c1.6.15,3.16.23,4.66.23a48.4,48.4,0,0,0,11-1v37.5a8.88,8.88,0,0,0,2.59-.6,5.3,5.3,0,0,0,1.92-1.36l5.71-5.56c1.66-1.65,2.48-3.18,2.48-4.58a3.08,3.08,0,0,0-1.58-2.74,8.51,8.51,0,0,0-4.2-1.17v-1.5q4.13.22,8.79.22,6.24,0,8.79-.22v1.5q-4.44,1-9.39,5.79l-4.81,5,12.62,21.11A27.09,27.09,0,0,0,434.94,199.11Z"
        transform="translate(-20.34 0.02)"
        fill="#fff"
    />
    <path
        d="M469.05,190.81l1.36.45a18,18,0,0,1-5.38,8.3,14,14,0,0,1-9.68,3.44q-8,0-12.67-5.07t-4.69-15q0-10.16,5-15.52T456.43,162q14.13,0,14.13,16.68H449.44c0,.75-.07,1.93-.07,3.53a21.43,21.43,0,0,0,1.39,8.27,10.49,10.49,0,0,0,3.6,4.81,8.38,8.38,0,0,0,4.77,1.5Q465.3,196.82,469.05,190.81ZM451.51,167q-1.77,3.34-2.22,10.33h11.8a28.57,28.57,0,0,0-1.17-9.81c-.87-2.58-2.19-3.87-3.94-3.87S452.68,164.72,451.51,167Z"
        transform="translate(-20.34 0.02)"
        fill="#fff"
    />
    <path
        d="M490.17,163.08H499v1.5h-8.87v30.36a5,5,0,0,0,.79,3.2,3.15,3.15,0,0,0,2.52.93c2.15,0,3.86-1.5,5.11-4.5l1.28.67Q497,203,489.57,203c-3.33,0-5.84-.85-7.51-2.55a8.12,8.12,0,0,1-2.15-4,29.53,29.53,0,0,1-.56-6.43V164.6H473v-1.5h6.31v-9.92a22.79,22.79,0,0,0,10.82-2.41Z"
        transform="translate(-20.34 0.02)"
        fill="#fff"
    />
    <path
        d="M517,194.94c0,2.06.36,3.47,1.09,4.25a5,5,0,0,0,3.72,1.16v1.58q-7.51-.3-10-.3-2.32,0-10.44.3v-1.58c1.8,0,3.05-.38,3.76-1.16s1.05-2.19,1.05-4.25V171.27a9.34,9.34,0,0,0-1.05-5,4.38,4.38,0,0,0-3.76-1.57v-1.58c1.6.15,3.15.22,4.66.22a47.23,47.23,0,0,0,11-1.05Zm-.86-49.71a5.83,5.83,0,0,1,.26,8.23,3.19,3.19,0,0,1-.26.26,8.9,8.9,0,0,1-10,0,5.83,5.83,0,0,1-.26-8.23c.08-.09.17-.17.26-.26A8.9,8.9,0,0,1,516.14,145.23Z"
        transform="translate(-20.34 0.02)"
        fill="#fff"
    />
    <path
        d="M561.26,165a8.22,8.22,0,0,1,1.81,3.68,28.27,28.27,0,0,1,.52,6.09V195c0,2.06.37,3.47,1.09,4.25a4.94,4.94,0,0,0,3.72,1.16V202c-5-.2-8.31-.3-9.92-.3s-4.76.1-9.77.3v-1.58a3.77,3.77,0,0,0,3.16-1.16c.6-.78.9-2.19.9-4.25V171.57a8.76,8.76,0,0,0-1-4.66,4,4,0,0,0-3.65-1.58,6.72,6.72,0,0,0-5.26,2.52,9.18,9.18,0,0,0-2.18,6.2v20.89c0,2.06.3,3.47.9,4.25a3.77,3.77,0,0,0,3.16,1.16v1.58q-6.91-.3-9.32-.3-2.25,0-10.37.3v-1.58c1.8,0,3.06-.38,3.76-1.16s1.05-2.19,1.05-4.25V171.27a9.34,9.34,0,0,0-1.05-5,4.36,4.36,0,0,0-3.76-1.57v-1.58c1.6.15,3.16.22,4.66.22a47.23,47.23,0,0,0,11-1.05V169q3.39-7,12.33-7C556.8,162,559.56,163,561.26,165Z"
        transform="translate(-20.34 0.02)"
        fill="#fff"
    />
    <path
        d="M603.72,169.28a3.87,3.87,0,0,1-1-2.9,8.54,8.54,0,0,1,.9-3.68,12.5,12.5,0,0,0-3,1.69,8.76,8.76,0,0,0-2,2.37A10.87,10.87,0,0,1,601,174q0,5.94-4.09,8.95c-2.74,2-6.35,3-10.86,3h-1.36c-2,1.21-3.08,2.53-3.08,4s1,2.4,3,2.4h8.19q6.62,0,10.56,2.44a8.2,8.2,0,0,1,3.94,7.48,11,11,0,0,1-2.44,7,16.58,16.58,0,0,1-7.4,5,34.48,34.48,0,0,1-12.17,1.88,31,31,0,0,1-11.69-1.84c-2.93-1.23-4.4-3-4.4-5.3a5.42,5.42,0,0,1,2.11-4.17,15.09,15.09,0,0,1,6.23-2.89l.68,1.2a6.65,6.65,0,0,0-2.7,5.18,5.33,5.33,0,0,0,2.85,4.85,18.78,18.78,0,0,0,16.42-.41A6.68,6.68,0,0,0,598,206.8a4.66,4.66,0,0,0-1.84-3.91c-1.23-.95-3.38-1.43-6.43-1.43h-4.65a14.64,14.64,0,0,1-7.52-1.61,5.36,5.36,0,0,1-2.71-4.92,7.23,7.23,0,0,1,2-5,20.19,20.19,0,0,1,5.94-4.21,15,15,0,0,1-8.57-3.61,10.5,10.5,0,0,1-3.16-8.12q0-5.93,4.1-8.94t10.86-3q7.51,0,11.5,3.53a10.71,10.71,0,0,1,3.53-3.23,8.61,8.61,0,0,1,4.28-1.21,4.82,4.82,0,0,1,3.57,1.32,4.64,4.64,0,0,1,1.32,3.42,4.43,4.43,0,0,1-1.17,3.27,3.79,3.79,0,0,1-2.74,1.16A3.56,3.56,0,0,1,603.72,169.28Zm-14.54,12.89q1.1-2.41,1.09-8.2t-1.09-8.19c-.73-1.6-1.79-2.4-3.19-2.4a3.46,3.46,0,0,0-3.2,2.4c-.72,1.61-1.09,4.34-1.09,8.19s.37,6.59,1.09,8.2a3.46,3.46,0,0,0,3.2,2.4A3.5,3.5,0,0,0,589.18,182.17Z"
        transform="translate(-20.34 0.02)"
        fill="#fff"
    />
</svg>
