<svg xmlns="http://www.w3.org/2000/svg" width="98.83" height="98.83" viewBox="0 0 98.83 98.83" class="logo">
    <circle cx="49.41" cy="49.41" r="48.06" fill="none" stroke="#003b71" stroke-miterlimit="10" stroke-width="2.69" />
    <circle cx="49.41" cy="49.41" r="41.53" fill="#ff8300" stroke="#003b71" stroke-miterlimit="10" stroke-width="2.69" />
    <path d="M90.48,57.57c-1.8,19.64-26,35.19-46.71,33.12C25,88.81,10.89,75.89,8.24,58.09,7.68,54.29,90.49,57.45,90.48,57.57Z" fill="#238dc1" />
    <line x1="10.53" y1="63.29" x2="87.55" y2="63.31" fill="none" stroke="#003b71" stroke-miterlimit="10" stroke-width="2.69" />
    <path
        d="M25,83.11C36.08,82.26,51.75,73.77,52.12,71c.33-2.42-9.72-5.39-13.6-7.65l15.58-.1c4,2.83,18.36,5.18,17.74,9.68-.7,5.13-12.35,16.37-12.35,16.37A24.51,24.51,0,0,1,43.8,90.56a151.21,151.21,0,0,1-15.58-5.43l-2-1.26Z"
        fill="#d79a2b"
        stroke="#003b71"
        stroke-linecap="round"
        stroke-linejoin="round"
        stroke-width="2.69"
    />
    <path class="sun" style="transition:all 1s;transform-origin: 50% 50%;z-index" d="M71.71,46a22.11,22.11,0,0,0-21.5-22.69A22.44,22.44,0,0,0,28,40.83,23.19,23.19,0,0,0,27.17,45" fill="#ffcd00" stroke="#003b71" stroke-miterlimit="10" stroke-width="2.69" />
    <line x1="71" y1="38.51" x2="88.23" y2="34.54" fill="none" stroke="#003b71" stroke-miterlimit="10" stroke-width="2.69" />
    <line x1="62.92" y1="27.75" x2="72.06" y2="15.68" fill="none" stroke="#003b71" stroke-miterlimit="10" stroke-width="2.69" />
    <line x1="49.44" y1="22.92" x2="49.58" y2="8.03" fill="none" stroke="#003b71" stroke-miterlimit="10" stroke-width="2.69" />
    <line x1="36.77" y1="26.93" x2="27.15" y2="12.98" fill="none" stroke="#003b71" stroke-miterlimit="10" stroke-width="2.69" />
    <line x1="28.58" y1="37.17" x2="12.77" y2="30.95" fill="none" stroke="#003b71" stroke-miterlimit="10" stroke-width="2.69" />
    <circle cx="49.41" cy="49.41" r="41.53" fill="none" stroke="#003b71" stroke-miterlimit="10" stroke-width="2.69" />
    <path
        d="M39.86,49.18a21.32,21.32,0,0,0,2-3.46c1-1.9,2-3.88,2.85-4.4a8.25,8.25,0,0,1,2.7-1s3-10.8,7.55-11.2S70.4,43.8,71.3,45.34,89.13,60.59,89.13,60.59l-1.58,2.72-77,0-1.1-5.66S16,56.4,19,53.71s5.25-7.08,8.17-8.76a14.19,14.19,0,0,1,4.44-1.88l2.77-4.79s4.16,7.5,5.54,9.77c.48.79,1.49,5.14,2.5,7.15"
        fill="#aac6c9"
        stroke="#003b71"
        stroke-miterlimit="10"
        stroke-width="2.69"
    />
    <path d="M37.79,63.09a18.52,18.52,0,0,0,2.85-3.7c.64-1.45,1.56-6.45,7.41-10.84s8.37-5.73,8.71-6.14,5.58,5.8,8.41,11c1.65,3,4,7,5.87,9.85" fill="none" stroke="#003b71" stroke-miterlimit="10" stroke-width="2.69" />
</svg>
